<svg  viewBox="0 0 33 34" fill="none" xmlns="http://www.w3.org/2000/svg">
<path d="M16.2734 33.4546C25.2481 33.4546 32.5234 26.1792 32.5234 17.2046C32.5234 8.22996 25.2481 0.95459 16.2734 0.95459C7.29881 0.95459 0.0234375 8.22996 0.0234375 17.2046C0.0234375 26.1792 7.29881 33.4546 16.2734 33.4546Z" fill="#4A5A65"/>
<path d="M21.4258 12.3217L14.1348 19.001L11.0756 16.2986C11.0756 16.2986 9.80091 15.7378 9.08713 16.5536C8.37335 17.3694 9.08713 18.2871 9.08713 18.2871L14.1348 23.2328L23.5673 14.7181C23.5673 14.7181 24.1791 13.8004 23.3123 12.8316C22.4456 11.8629 21.4258 12.3217 21.4258 12.3217Z" />
</svg>
